<svg xmlns="http://www.w3.org/2000/svg" viewBox="0 0 400 400">
  <defs>
    <clipPath id="a">
      <circle cx="200" cy="200" r="200"/>
    </clipPath>
  </defs>
  <g fill="#fff" clip-path="url(#a)">
    <path d="M0 300h400v100H0z"/>
    <path fill="#000" d="M0 100h400v200H0z"/>
    <path d="M0 0h400v100H0zm20 205.3v-10.6h30.7v10.6zM51.4 250l20.2-100h11.7L63 250z"/>
    <path d="M83 150h11.6L115 250h-11.7z"/>
    <path d="M114.7 250 135 150h11.8l-20.4 100z"/>
    <path d="M146.4 150h11.5l20.5 100h-11.8zm38.2 55.3v-10.6h30.8v10.6zM216 150h11.6L248 250h-11.8z"/>
    <path d="m247.7 250 20.2-100h11.8l-20.5 100z"/>
    <path d="M279.4 150h11.5l20.4 100h-11.7z"/>
    <path d="m311 250 20.2-100H343l-20.4 100zm38.3-44.7v-10.6H380v10.6z"/>
  </g>
</svg>
